<?xml version="1.0" encoding="UTF-8"?>
<svg version="1.1" xmlns="http://www.w3.org/2000/svg" width="363" height="222">
<path d="M0 0 C119.79 0 239.58 0 363 0 C363 73.26 363 146.52 363 222 C243.21 222 123.42 222 0 222 C0 148.74 0 75.48 0 0 Z " fill="#FEFEFE" transform="translate(0,0)"/>
<path d="M0 0 C28.05 0 56.1 0 85 0 C85 28.38 85 56.76 85 86 C81.37 86 77.74 86 74 86 C74 60.92 74 35.84 74 10 C49.58 10 25.16 10 0 10 C0 6.7 0 3.4 0 0 Z " fill="#4B4B4B" transform="translate(257,7)"/>
<path d="M0 0 C5.28 0 10.56 0 16 0 C15.67 1.65 15.34 3.3 15 5 C14.97483794 6.53651933 15.00399609 8.07483585 15.0859375 9.609375 C15.12976563 10.44597656 15.17359375 11.28257813 15.21875 12.14453125 C15.2703125 13.00433594 15.321875 13.86414063 15.375 14.75 C15.41882813 15.62527344 15.46265625 16.50054687 15.5078125 17.40234375 C15.38496497 21.53283261 15.38496497 21.53283261 17 25 C18.69804788 17.61840342 19.0878462 11.50613879 18 4 C22.62 4 27.24 4 32 4 C31.81566406 5.1446875 31.63132813 6.289375 31.44140625 7.46875 C30.87965597 11.96275228 31.27287852 16.04166958 31.9375 20.5 C32.03740234 21.22703125 32.13730469 21.9540625 32.24023438 22.703125 C32.48434725 24.47003721 32.74085297 26.23523014 33 28 C33.08564209 27.40985107 33.17128418 26.81970215 33.25952148 26.21166992 C33.64935599 23.53652607 34.04338014 20.86201571 34.4375 18.1875 C34.57220703 17.25873047 34.70691406 16.32996094 34.84570312 15.37304688 C34.97783203 14.48037109 35.10996094 13.58769531 35.24609375 12.66796875 C35.42676392 11.43469849 35.42676392 11.43469849 35.61108398 10.17651367 C36 8 36 8 37 5 C36.34 5 35.68 5 35 5 C34.505 2.525 34.505 2.525 34 0 C39.28 0 44.56 0 50 0 C49.67 1.65 49.34 3.3 49 5 C48.01 5 47.02 5 46 5 C46.02320313 5.59280762 46.04640625 6.18561523 46.0703125 6.79638672 C46.21597148 13.477192 45.3404707 19.59473396 44 26.125 C42.14556836 35.23426895 40.98361117 41.95083351 44 51 C38.06 51 32.12 51 26 51 C26.66 49.02 27.32 47.04 28 45 C28.1173615 42.91235374 28.1173615 42.91235374 27.79296875 40.984375 C27.70080078 40.29085937 27.60863281 39.59734375 27.51367188 38.8828125 C27.40603516 38.17898437 27.29839844 37.47515625 27.1875 36.75 C27.09146484 36.03070313 26.99542969 35.31140625 26.89648438 34.5703125 C26.37467747 30.66313636 26.37467747 30.66313636 25 27 C24.79503906 28.13179687 24.59007812 29.26359375 24.37890625 30.4296875 C24.10693028 31.91148761 23.83478613 33.39325685 23.5625 34.875 C23.42779297 35.62136719 23.29308594 36.36773437 23.15429688 37.13671875 C22.11328125 42.7734375 22.11328125 42.7734375 21 45 C21.66 45 22.32 45 23 45 C23.33 46.98 23.66 48.96 24 51 C18.39 51 12.78 51 7 51 C7.495 48.03 7.495 48.03 8 45 C8.66 45 9.32 45 10 45 C9.81824219 44.00145996 9.63648438 43.00291992 9.44921875 41.97412109 C8.77303593 38.25143081 8.10376588 34.52752485 7.43652344 30.80322266 C7.14737829 29.19481236 6.85638662 27.58673283 6.56347656 25.97900391 C6.14156095 23.66133823 5.7264105 21.34254448 5.3125 19.0234375 C5.18125732 18.31069672 5.05001465 17.59795593 4.91479492 16.86361694 C4.2076229 12.85897672 3.86653762 9.0650416 4 5 C3.34 5 2.68 5 2 5 C1.34 3.35 0.68 1.7 0 0 Z " fill="#454545" transform="translate(136,43)"/>
<path d="M0 0 C1.04542969 -0.01998047 2.09085938 -0.03996094 3.16796875 -0.06054688 C4.17472656 -0.05990234 5.18148437 -0.05925781 6.21875 -0.05859375 C7.13591797 -0.06044678 8.05308594 -0.0622998 8.99804688 -0.06420898 C11.5 0.4375 11.5 0.4375 13.796875 1.84912109 C16.42795144 5.847784 16.07196165 9.65956277 16.03125 14.34765625 C16.0350769 15.31150742 16.03890381 16.27535858 16.04284668 17.26841736 C16.04556578 19.30338589 16.03820475 21.33838936 16.02148438 23.37329102 C16.00005161 26.49248867 16.02129831 29.60938906 16.046875 32.72851562 C16.04423218 34.70573426 16.03910815 36.68295146 16.03125 38.66015625 C16.03934692 39.59457047 16.04744385 40.52898468 16.05578613 41.49171448 C15.96317747 47.86540242 15.96317747 47.86540242 13.80566406 50.53027344 C11.06296493 51.6094634 9.02615973 51.77960266 6.078125 51.73046875 C4.54091797 51.7159668 4.54091797 51.7159668 2.97265625 51.70117188 C1.90917969 51.67603516 0.84570312 51.65089844 -0.25 51.625 C-1.86841797 51.60469727 -1.86841797 51.60469727 -3.51953125 51.58398438 C-6.1801942 51.54866584 -8.83984296 51.49934199 -11.5 51.4375 C-11.83 50.7775 -12.16 50.1175 -12.5 49.4375 C-13.49 49.1075 -14.48 48.7775 -15.5 48.4375 C-15.60130235 42.08387854 -15.67142368 35.73046477 -15.71972656 29.3762207 C-15.73985958 27.21403216 -15.76716833 25.05189817 -15.80175781 22.88989258 C-15.85020117 19.78453116 -15.87295172 16.67988864 -15.890625 13.57421875 C-15.91127014 12.60538254 -15.93191528 11.63654633 -15.95318604 10.63835144 C-15.95348816 9.7376442 -15.95379028 8.83693695 -15.95410156 7.90893555 C-15.96298401 7.11617722 -15.97186646 6.32341888 -15.98101807 5.50663757 C-15.5 3.4375 -15.5 3.4375 -13.62799072 1.68328857 C-9.49318883 -0.73734649 -4.66825021 -0.03165891 0 0 Z " fill="#434343" transform="translate(170.5,126.5625)"/>
<path d="M0 0 C4.58312084 -0.11605098 9.16586449 -0.18720362 13.75 -0.25 C15.05195313 -0.28351563 16.35390625 -0.31703125 17.6953125 -0.3515625 C18.94570312 -0.36445312 20.19609375 -0.37734375 21.484375 -0.390625 C22.63647461 -0.41157227 23.78857422 -0.43251953 24.97558594 -0.45410156 C28 0 28 0 30.37182617 1.76049805 C33.01568412 5.3970416 32.62138098 8.70184378 32.5625 13.0625 C32.59827148 14.28549805 32.59827148 14.28549805 32.63476562 15.53320312 C32.62915185 17.81052441 32.56299959 19.79237316 32 22 C29.46484375 24.05859375 29.46484375 24.05859375 27 25 C27.55994374 30.17947959 29.28716344 34.69259489 31.16015625 39.51171875 C32 42 32 42 32 45 C32.66 45 33.32 45 34 45 C34.66 46.98 35.32 48.96 36 51 C30.39 51 24.78 51 19 51 C19.66 48.36 20.32 45.72 21 43 C20.42655893 39.81428902 20.42655893 39.81428902 19.125 37 C18.73570312 36.05125 18.34640625 35.1025 17.9453125 34.125 C17.63335937 33.42375 17.32140625 32.7225 17 32 C16.01 32 15.02 32 14 32 C14 36.29 14 40.58 14 45 C14.66 45 15.32 45 16 45 C16.66 46.98 17.32 48.96 18 51 C12.06 51 6.12 51 0 51 C0.495 48.03 0.495 48.03 1 45 C1.66 45 2.32 45 3 45 C2.90629176 39.39464745 2.80015878 33.78971798 2.68261719 28.18481445 C2.64438661 26.27895514 2.60952345 24.37302513 2.578125 22.46704102 C2.53234578 19.72386447 2.4743727 16.98117212 2.4140625 14.23828125 C2.39673569 12.96456413 2.39673569 12.96456413 2.37905884 11.66511536 C2.27190018 7.34821813 1.99342667 3.93439473 0 0 Z " fill="#444444" transform="translate(196,127)"/>
<path d="M0 0 C2.97 0 5.94 0 9 0 C9 22.44 9 44.88 9 68 C31.11 68 53.22 68 76 68 C76 70.97 76 73.94 76 77 C50.92 77 25.84 77 0 77 C0 51.59 0 26.18 0 0 Z " fill="#414141" transform="translate(25,138)"/>
<path d="M0 0 C5.61 0 11.22 0 17 0 C16.67 1.65 16.34 3.3 16 5 C15.34 5 14.68 5 14 5 C14.33 9.95 14.66 14.9 15 20 C16.03125 17.999375 17.0625 15.99875 18.125 13.9375 C18.70507812 12.81214844 19.28515625 11.68679687 19.8828125 10.52734375 C21.53577199 6.43622451 21.53577199 6.43622451 19 0 C24.28 0 29.56 0 35 0 C34.443125 1.134375 33.88625 2.26875 33.3125 3.4375 C32.95542969 4.1696875 32.59835937 4.901875 32.23046875 5.65625 C31 8 31 8 29.55078125 10.21875 C27.1777396 13.91159289 25.46353394 16.6233227 26.375 21.0625 C26.88124561 22.71957137 27.43041767 24.36361798 28 26 C28.65567689 28.06032231 29.29824583 30.12449191 29.93994141 32.18920898 C30.39161715 33.63035402 30.85204657 35.06878877 31.32177734 36.50415039 C32.27883742 39.45562089 33 41.87562666 33 45 C33.66 45 34.32 45 35 45 C35.66 46.98 36.32 48.96 37 51 C31.06 51 25.12 51 19 51 C19.391875 49.72125 19.78375 48.4425 20.1875 47.125 C21.45803991 41.56638788 20.16703622 37.17623817 18 32 C17.67 31.67 17.34 31.34 17 31 C14.81005752 34.28491373 14.64722661 35.83095639 14.375 39.6875 C14.30023438 40.68136719 14.22546875 41.67523438 14.1484375 42.69921875 C14.09945313 43.45847656 14.05046875 44.21773437 14 45 C14.66 45 15.32 45 16 45 C16.66 46.98 17.32 48.96 18 51 C12.06 51 6.12 51 0 51 C0.495 48.03 0.495 48.03 1 45 C1.66 45 2.32 45 3 45 C2.90629176 39.39464745 2.80015878 33.78971798 2.68261719 28.18481445 C2.64438661 26.27895514 2.60952345 24.37302513 2.578125 22.46704102 C2.53234578 19.72386447 2.4743727 16.98117212 2.4140625 14.23828125 C2.39673569 12.96456413 2.39673569 12.96456413 2.37905884 11.66511536 C2.35918915 10.86466293 2.33931946 10.06421051 2.31884766 9.23950195 C2.29886215 8.19026299 2.29886215 8.19026299 2.2784729 7.11982727 C2.01544125 4.4409714 2.01544125 4.4409714 0 0 Z " fill="#444444" transform="translate(266,43)"/>
<path d="M0 0 C7.26 0 14.52 0 22 0 C21.67 3.3 21.34 6.6 21 10 C21.28500113 13.78229633 21.28500113 13.78229633 21.99609375 17.36328125 C22.22490234 18.66201172 22.45371094 19.96074219 22.68945312 21.29882812 C22.93809477 22.63685038 23.18744993 23.97474023 23.4375 25.3125 C23.92147763 27.97421788 24.39684682 30.63729359 24.87109375 33.30078125 C25.08693115 34.46778564 25.30276855 35.63479004 25.52514648 36.8371582 C25.9437138 39.62509626 26.0952984 42.18886198 26 45 C26.66 45 27.32 45 28 45 C28.495 47.97 28.495 47.97 29 51 C23.72 51 18.44 51 13 51 C13.83007812 48.02148438 13.83007812 48.02148438 14.66015625 45.04296875 C15.19563817 42.80755841 15.19563817 42.80755841 14 40 C13.01 42.475 13.01 42.475 12 45 C10 42 10 42 9 40 C8.01 42.475 8.01 42.475 7 45 C7.66 45 8.32 45 9 45 C9.33 46.98 9.66 48.96 10 51 C4.39 51 -1.22 51 -7 51 C-6.01 48.03 -6.01 48.03 -5 45 C-4.34 45 -3.68 45 -3 45 C-3.05027344 43.98550781 -3.10054688 42.97101563 -3.15234375 41.92578125 C-3.15101948 35.91490042 -1.97851618 30.07016825 -0.91870117 24.17114258 C-0.56040487 22.17583244 -0.21201362 20.17898152 0.13476562 18.18164062 C1.84704748 8.45885755 1.84704748 8.45885755 3 5 C2.34 5 1.68 5 1 5 C0.67 3.35 0.34 1.7 0 0 Z " fill="#464646" transform="translate(97,43)"/>
<path d="M0 0 C2.62621048 -0.031924 5.24907449 -0.05370712 7.87548828 -0.03344727 C9.24253906 -0.06341797 9.24253906 -0.06341797 10.63720703 -0.09399414 C14.54430403 -0.09113389 17.2180533 -0.04255838 20.64892578 1.91577148 C22.60182163 5.51113176 22.18768449 8.72622651 21.75048828 12.65405273 C21.68474609 13.39913086 21.61900391 14.14420898 21.55126953 14.91186523 C21.38681017 16.74441239 21.19619939 18.57457928 21.00048828 20.40405273 C19.18684058 19.42701353 17.37460011 18.44736169 15.56298828 17.46655273 C14.55365234 16.9212793 13.54431641 16.37600586 12.50439453 15.81420898 C10.00048828 14.40405273 10.00048828 14.40405273 9.00048828 13.40405273 C8.95955891 11.0710784 8.95807105 8.73700049 9.00048828 6.40405273 C8.01048828 6.40405273 7.02048828 6.40405273 6.00048828 6.40405273 C5.55752936 10.69567115 5.6411064 14.28650473 7.00048828 18.40405273 C10.99349483 22.84408271 16.72535188 25.76648454 22.00048828 28.40405273 C22.11671768 32.15379179 22.18774779 35.90306738 22.25048828 39.65405273 C22.30076172 41.24926758 22.30076172 41.24926758 22.35205078 42.87670898 C22.36494141 43.90151367 22.37783203 44.92631836 22.39111328 45.98217773 C22.41206055 46.92480469 22.43300781 47.86743164 22.45458984 48.83862305 C21.85394775 52.23192793 20.75232482 53.37601266 18.00048828 55.40405273 C15.61865234 55.8581543 15.61865234 55.8581543 13.01611328 55.79467773 C12.08154297 55.78178711 11.14697266 55.76889648 10.18408203 55.75561523 C9.21599609 55.72209961 8.24791016 55.68858398 7.25048828 55.65405273 C6.26693359 55.63600586 5.28337891 55.61795898 4.27001953 55.59936523 C1.84585045 55.55229399 -0.57633231 55.48656015 -2.99951172 55.40405273 C-3.32951172 54.74405273 -3.65951172 54.08405273 -3.99951172 53.40405273 C-4.98951172 53.07405273 -5.97951172 52.74405273 -6.99951172 52.40405273 C-6.66951172 46.13405273 -6.33951172 39.86405273 -5.99951172 33.40405273 C3.20307449 37.08508722 3.20307449 37.08508722 6.00048828 40.40405273 C6.59063736 43.48939355 6.4259909 46.30396223 6.00048828 49.40405273 C6.99048828 49.40405273 7.98048828 49.40405273 9.00048828 49.40405273 C9.76239323 39.33387147 9.76239323 39.33387147 5.62548828 30.63061523 C1.593767 27.74621889 -2.57259493 25.61751113 -6.99951172 23.40405273 C-6.99951172 17.13405273 -6.99951172 10.86405273 -6.99951172 4.40405273 C-6.00951172 4.07405273 -5.01951172 3.74405273 -3.99951172 3.40405273 C-1.99951172 0.40405273 -1.99951172 0.40405273 0 0 Z " fill="#454545" transform="translate(76.99951171875,122.595947265625)"/>
<path d="M0 0 C10.23 0 20.46 0 31 0 C30.67 1.65 30.34 3.3 30 5 C29.34 5 28.68 5 28 5 C28 8.3 28 11.6 28 15 C23.9861764 13.78651845 20.30899391 12.62773046 17 10 C16.6875 7.3125 16.6875 7.3125 17 5 C16.01 5.495 16.01 5.495 15 6 C14.53045739 9.04581269 14.53045739 9.04581269 14.375 12.5625 C14.30023438 13.76003906 14.22546875 14.95757812 14.1484375 16.19140625 C14.09945313 17.11824219 14.05046875 18.04507813 14 19 C16.31 19 18.62 19 21 19 C21.66 22.3 22.32 25.6 23 29 C20.03 29 17.06 29 14 29 C14 34.28 14 39.56 14 45 C14.99 45 15.98 45 17 45 C17 42.69 17 40.38 17 38 C18.62249941 37.16180842 20.24808497 36.3295884 21.875 35.5 C22.77992188 35.0359375 23.68484375 34.571875 24.6171875 34.09375 C27 33 27 33 29 33 C29.19916016 34.69769531 29.19916016 34.69769531 29.40234375 36.4296875 C29.5805342 37.91148179 29.75893029 39.39325136 29.9375 40.875 C30.02451172 41.62136719 30.11152344 42.36773437 30.20117188 43.13671875 C30.63326063 47.1953231 30.63326063 47.1953231 32 51 C21.44 51 10.88 51 0 51 C0.495 48.03 0.495 48.03 1 45 C1.66 45 2.32 45 3 45 C3 31.8 3 18.6 3 5 C2.34 5 1.68 5 1 5 C0.67 3.35 0.34 1.7 0 0 Z " fill="#434343" transform="translate(243,127)"/>
<path d="M0 0 C12.87 0 25.74 0 39 0 C38.67 1.98 38.34 3.96 38 6 C37.34 6 36.68 6 36 6 C36 8.31 36 10.62 36 13 C33.69 12.34 31.38 11.68 29 11 C29 9.35 29 7.7 29 6 C28.01 6 27.02 6 26 6 C26 20.19 26 34.38 26 49 C26.66 49 27.32 49 28 49 C28.66 50.98 29.32 52.96 30 55 C23.4 55 16.8 55 10 55 C10.66 53.02 11.32 51.04 12 49 C12.66 49 13.32 49 14 49 C14 34.81 14 20.62 14 6 C13.01 6 12.02 6 11 6 C10.67 7.65 10.34 9.3 10 11 C8.02 11.66 6.04 12.32 4 13 C4 10.69 4 8.38 4 6 C3.34 6 2.68 6 2 6 C1.34 4.02 0.68 2.04 0 0 Z " fill="#454545" transform="translate(41,39)"/>
<path d="M0 0 C10.23 0 20.46 0 31 0 C30.34 5.94 29.68 11.88 29 18 C24.6214626 16.24858504 21.02927258 14.37016034 17 12 C17 9.69 17 7.38 17 5 C16.01 5.495 16.01 5.495 15 6 C14.53045739 9.04581269 14.53045739 9.04581269 14.375 12.5625 C14.30023438 13.76003906 14.22546875 14.95757812 14.1484375 16.19140625 C14.09945312 17.11824219 14.05046875 18.04507813 14 19 C16.31 19 18.62 19 21 19 C22.31626692 22.61973402 23 25.09567131 23 29 C20.03 29 17.06 29 14 29 C14 34.28 14 39.56 14 45 C14.66 45 15.32 45 16 45 C16.66 46.98 17.32 48.96 18 51 C12.06 51 6.12 51 0 51 C0.495 48.03 0.495 48.03 1 45 C1.66 45 2.32 45 3 45 C2.90629176 39.39464745 2.80015878 33.78971798 2.68261719 28.18481445 C2.64438661 26.27895514 2.60952345 24.37302513 2.578125 22.46704102 C2.53234578 19.72386447 2.4743727 16.98117212 2.4140625 14.23828125 C2.39673569 12.96456413 2.39673569 12.96456413 2.37905884 11.66511536 C2.35918915 10.86466293 2.33931946 10.06421051 2.31884766 9.23950195 C2.29886215 8.19026299 2.29886215 8.19026299 2.2784729 7.11982727 C2.01544125 4.4409714 2.01544125 4.4409714 0 0 Z " fill="#454545" transform="translate(196,43)"/>
<path d="M0 0 C11.88 0 23.76 0 36 0 C35.34 1.65 34.68 3.3 34 5 C33.6186926 7.32597511 33.27539746 9.65912158 33 12 C31.02 11.34 29.04 10.68 27 10 C26.67 8.35 26.34 6.7 26 5 C25.01 5 24.02 5 23 5 C23 18.2 23 31.4 23 45 C23.99 45 24.98 45 26 45 C26.33 46.98 26.66 48.96 27 51 C20.73 51 14.46 51 8 51 C8.66 49.02 9.32 47.04 10 45 C10.66 45 11.32 45 12 45 C12 31.8 12 18.6 12 5 C11.01 5 10.02 5 9 5 C8.67 6.65 8.34 8.3 8 10 C6.35 10.33 4.7 10.66 3 11 C3 9.02 3 7.04 3 5 C2.34 5 1.68 5 1 5 C0.67 3.35 0.34 1.7 0 0 Z " fill="#414141" transform="translate(110,127)"/>
<path d="M0 0 C5.61 0 11.22 0 17 0 C16.67 1.65 16.34 3.3 16 5 C15.34 5 14.68 5 14 5 C14 18.2 14 31.4 14 45 C14.66 45 15.32 45 16 45 C16.33 46.98 16.66 48.96 17 51 C11.06 51 5.12 51 -1 51 C-0.01 48.03 -0.01 48.03 1 45 C1.66 45 2.32 45 3 45 C3 31.8 3 18.6 3 5 C2.34 5 1.68 5 1 5 C0.67 3.35 0.34 1.7 0 0 Z " fill="#434343" transform="translate(238,43)"/>
<path d="M0 0 C2.625 0.375 2.625 0.375 5 1 C5.02464849 6.39346988 5.04283531 11.78690725 5.05493164 17.18041992 C5.05997231 19.01668875 5.06680477 20.85295354 5.07543945 22.68920898 C5.08751672 25.32276401 5.09323081 27.95626616 5.09765625 30.58984375 C5.10281754 31.41588608 5.10797882 32.24192841 5.11329651 33.09300232 C5.11349205 35.06236368 5.06204152 37.03161614 5 39 C4 40 4 40 1.5 40.125 C-1 40 -1 40 -2 39 C-2.11340974 36.28445608 -2.1641802 33.59529957 -2.16796875 30.87890625 C-2.17129715 30.06381088 -2.17462555 29.24871552 -2.17805481 28.40892029 C-2.18312742 26.68139207 -2.18546303 24.95385402 -2.18530273 23.22631836 C-2.18748792 20.57714755 -2.20563621 17.92839384 -2.22460938 15.27929688 C-2.22754344 13.6041681 -2.22952815 11.92903733 -2.23046875 10.25390625 C-2.23765427 9.45803604 -2.24483978 8.66216583 -2.25224304 7.84217834 C-2.22882227 2.22882227 -2.22882227 2.22882227 0 0 Z " fill="#F9F9F9" transform="translate(169,132)"/>
<path d="M0 0 C11.55 0 23.1 0 35 0 C35 0.33 35 0.66 35 1 C30.05 1.33 25.1 1.66 20 2 C20.66 3.98 21.32 5.96 22 8 C21.00176429 10.7261759 20.03552974 12.89101564 18.625 15.375 C18.28210938 16.01566406 17.93921875 16.65632813 17.5859375 17.31640625 C16.74184882 18.88734906 15.87329727 20.44510486 15 22 C14.67 22 14.34 22 14 22 C14 16.72 14 11.44 14 6 C14.66 6 15.32 6 16 6 C16.33 4.35 16.66 2.7 17 1 C11.39 1 5.78 1 0 1 C0 0.67 0 0.34 0 0 Z " fill="#DBDBDB" transform="translate(266,42)"/>
<path d="M0 0 C2.31 0 4.62 0 7 0 C7.02684312 2.81256281 7.04676188 5.62487241 7.0625 8.4375 C7.07087891 9.23994141 7.07925781 10.04238281 7.08789062 10.86914062 C7.0965143 12.91295221 7.0522815 14.95683902 7 17 C6 18 6 18 3.5 18.125 C1 18 1 18 0 17 C-0.07325168 14.13732433 -0.09238205 11.299281 -0.0625 8.4375 C-0.05798828 7.63119141 -0.05347656 6.82488281 -0.04882812 5.99414062 C-0.03700518 3.99606244 -0.01906914 1.99802217 0 0 Z " fill="#FCFCFC" transform="translate(167,154)"/>
<path d="M0 0 C0.33 0 0.66 0 1 0 C1.53590819 2.66440231 2.05389262 5.33036648 2.5625 8 C2.71396484 8.74378906 2.86542969 9.48757812 3.02148438 10.25390625 C3.99773484 15.47571108 4.06363184 19.77433052 3 25 C0.9375 26.5 0.9375 26.5 -1 27 C-1.33 25.02 -1.66 23.04 -2 21 C-2.66 21 -3.32 21 -4 21 C-3.52380865 18.06198921 -3.04417738 15.12461186 -2.5625 12.1875 C-2.42779297 11.35412109 -2.29308594 10.52074219 -2.15429688 9.66210938 C-2.02216797 8.85966797 -1.89003906 8.05722656 -1.75390625 7.23046875 C-1.63345947 6.49207764 -1.5130127 5.75368652 -1.38891602 4.99291992 C-1 3 -1 3 0 0 Z " fill="#F0F0F0" transform="translate(161,67)"/>
<path d="M0 0 C0.66 0.33 1.32 0.66 2 1 C4.71760108 1.07181821 7.40859388 1.09299506 10.125 1.0625 C11.25615234 1.05573242 11.25615234 1.05573242 12.41015625 1.04882812 C14.27347127 1.03703499 16.13674555 1.01909942 18 1 C17.67 1.66 17.34 2.32 17 3 C12.71 3 8.42 3 4 3 C4.3403125 4.7634375 4.3403125 4.7634375 4.6875 6.5625 C5.51137578 13.50977682 3.56908442 20.27155326 2 27 C1.67 27 1.34 27 1 27 C0.66029235 24.50072231 0.32811968 22.00080405 0 19.5 C-0.09539062 18.80390625 -0.19078125 18.1078125 -0.2890625 17.390625 C-1.83125 5.49375 -1.83125 5.49375 0 0 Z " fill="#E8E8E8" transform="translate(151,45)"/>
<path d="M0 0 C3.5693923 3.5693923 4.90134301 9.14933234 5.07421875 14.14453125 C4.875 16 4.875 16 4 19 C3.01 19.66 2.02 20.32 1 21 C0.34 20.34 -0.32 19.68 -1 19 C-1 17.68 -1 16.36 -1 15 C-1.66 15 -2.32 15 -3 15 C-3.08142927 13.2507786 -3.13938541 11.50045458 -3.1875 9.75 C-3.22230469 8.77546875 -3.25710938 7.8009375 -3.29296875 6.796875 C-2.96075202 3.62531258 -2.11327721 2.32959693 0 0 Z " fill="#ECECEC" transform="translate(283,73)"/>
<path d="M0 0 C2.922879 2.45357167 3.79944138 4.73198132 4.8125 8.375 C5.08707031 9.31085938 5.36164063 10.24671875 5.64453125 11.2109375 C6.05638526 14.44240746 5.43949091 16.12101817 4 19 C3.01 19 2.02 19 1 19 C0.67 17.35 0.34 15.7 0 14 C-0.66 14 -1.32 14 -2 14 C-2 9.71 -2 5.42 -2 1 C-1.34 0.67 -0.68 0.34 0 0 Z " fill="#EBEBEB" transform="translate(212,158)"/>
<path d="M0 0 C1.65 0 3.3 0 5 0 C5.08089542 2.77141717 5.14044062 5.54047819 5.1875 8.3125 C5.22520508 9.49102539 5.22520508 9.49102539 5.26367188 10.69335938 C5.27333984 11.45068359 5.28300781 12.20800781 5.29296875 12.98828125 C5.3086792 13.68477783 5.32438965 14.38127441 5.34057617 15.09887695 C4.89567045 17.58237578 3.96642914 18.47101992 2 20 C1.34 20 0.68 20 0 20 C0 13.4 0 6.8 0 0 Z " fill="#EDEDED" transform="translate(210,132)"/>
<path d="M0 0 C0.33 0 0.66 0 1 0 C1.95458649 8.35263176 2.11039334 16.59784035 2 25 C1.01 25 0.02 25 -1 25 C-1.18451025 8.29157175 -1.18451025 8.29157175 0 0 Z " fill="#F9F9F9" transform="translate(108,52)"/>
<path d="M0 0 C1.65 0 3.3 0 5 0 C4.67 1.65 4.34 3.3 4 5 C2.68 4.67 1.36 4.34 0 4 C0 2.68 0 1.36 0 0 Z " fill="#454545" transform="translate(168,150)"/>
<path d="M0 0 C0.33 0 0.66 0 1 0 C1.33 4.95 1.66 9.9 2 15 C1.34 15 0.68 15 0 15 C-1.2063366 9.77254141 -0.75612577 5.23471686 0 0 Z " fill="#D5D5D5" transform="translate(108,52)"/>
</svg>
